<svg width="1920" height="700" viewBox="0 -215 1920 485" fill="none" xmlns="http://www.w3.org/2000/svg">
<path fill-rule="evenodd" clip-rule="evenodd" d="M1920 139.41L1884 178.41C1849 216.41 1778 293.41 1707 283.41C1636 274.41 1564 178.41 1493 149.41C1422 120.41 1351 159.41 1280 187.41C1209 216.41 1138 235.41 1067 245.41C996 255.41 924 255.41 853 216.41C782 178.41 711 101.41 640 91.4103C569 82.4103 498 139.41 427 130.41C356 120.41 284 43.4103 213 15.4103C142 -13.5897 71 5.41032 36 15.4103L0 24.4103V485.41H36C71 485.41 142 485.41 213 485.41C284 485.41 356 485.41 427 485.41C498 485.41 569 485.41 640 485.41C711 485.41 782 485.41 853 485.41C924 485.41 996 485.41 1067 485.41C1138 485.41 1209 485.41 1280 485.41C1351 485.41 1422 485.41 1493 485.41C1564 485.41 1636 485.41 1707 485.41C1778 485.41 1849 485.41 1884 485.41H1920V139.41Z" fill="url(#paint0_linear)"/>
<defs>
<linearGradient id="paint0_linear" x1="-1360" y1="-34.9999" x2="3248" y2="421" gradientUnits="userSpaceOnUse">
<stop stop-color="#00FF57"/>
<stop offset="1" stop-color="#FAFF00" stop-opacity="0"/>
</linearGradient>
</defs>

<svg width="271" height="443" x="150" y="-100" viewBox="0 0 271 443" fill="none" xmlns="http://www.w3.org/2000/svg">
<path fill-rule="evenodd" clip-rule="evenodd" d="M132.417 42.0694C127.612 36.1182 124.359 28.8248 124.903 20.6524C126.469 -2.89458 157.537 2.28546 163.58 14.17C169.624 26.0545 168.906 56.2005 161.095 58.3246C157.98 59.1717 151.345 57.0966 144.591 52.802L148.83 84.442H123.801L132.417 42.0694Z" fill="#B28B67"/>
<path fill-rule="evenodd" clip-rule="evenodd" d="M152.541 15.8935C149.145 17.8981 146.727 21.6542 143.818 26.5812C143.109 26.2873 142.337 26.1259 141.53 26.1259C138.074 26.1259 135.272 29.0816 135.272 32.7277C135.272 34.5787 135.994 36.2517 137.157 37.4504C135.709 39.6066 134.087 41.859 132.227 44.1832C125.289 39.791 120.128 26.9901 126.753 14.6324C132.453 -10.1209 164.753 5.24319 170.967 1.06844C172.326 10.051 167.945 17.2938 152.541 15.8935Z" fill="#191847"/>
<path fill-rule="evenodd" clip-rule="evenodd" d="M122.793 179.965L173.98 316.652L208.311 432.209H221.868L169.383 179.965L122.793 179.965Z" fill="#997659"/>
<path fill-rule="evenodd" clip-rule="evenodd" d="M112.485 179.965C111.94 227.997 103.991 292.666 102.721 295.66C101.874 297.656 72.646 323.04 15.0361 371.811L24.3734 382.353C92.3477 340.538 127.908 316.842 131.053 311.264C135.771 302.899 151.132 225.917 163.465 179.965H112.485Z" fill="#B28B67"/>
<path fill-rule="evenodd" clip-rule="evenodd" d="M13.8609 368.32C10.7115 369.506 8.54071 370.627 7.34845 371.683C5.89838 372.968 3.98319 375.095 1.60289 378.065C3.00135 379.824 15.5695 395.637 39.3075 425.503C44.1837 423.284 45.7216 420.709 43.9213 417.778C42.1209 414.847 40.6478 412.392 39.5019 410.413L31.3748 380.04C31.2184 379.455 30.641 379.119 30.085 379.29C30.0755 379.292 30.066 379.295 30.0566 379.299L25.6432 380.793C22.5921 379.306 20.4557 377.794 19.2339 376.257C18.2412 375.008 17.3525 372.856 16.5679 369.801L16.5679 369.801C16.2668 368.628 15.1187 367.944 14.0036 368.272C13.9555 368.286 13.908 368.302 13.8609 368.32Z" fill="#E4E4E4"/>
<path fill-rule="evenodd" clip-rule="evenodd" d="M202.76 426.875C201.593 430.161 201.01 432.619 201.01 434.251C201.01 436.235 201.323 439.13 201.95 442.937C204.131 442.937 223.738 442.937 260.771 442.937C262.299 437.605 261.417 434.727 258.124 434.302C254.83 433.877 252.095 433.493 249.916 433.15L222.577 420.291C222.051 420.044 221.434 420.293 221.2 420.848C221.196 420.858 221.192 420.867 221.188 420.877L219.431 425.375C216.382 426.875 213.905 427.626 211.998 427.626C210.45 427.626 208.311 426.966 205.582 425.646L205.582 425.646C204.535 425.14 203.297 425.625 202.817 426.73C202.796 426.777 202.777 426.826 202.76 426.875Z" fill="#E4E4E4"/>
<path fill-rule="evenodd" clip-rule="evenodd" d="M157.208 420.307L221.664 412.927L173.895 179.965H116.164L157.208 420.307Z" fill="#69A1AC"/>
<path fill-rule="evenodd" clip-rule="evenodd" d="M28.3691 354.803L70.6482 407.602C115.18 356.288 141.142 322.806 148.534 307.155C155.927 291.504 162.572 249.108 168.471 179.965H103.477C100.255 240.794 98.0827 272.623 96.961 275.454C95.8393 278.285 72.9753 304.734 28.3691 354.803Z" fill="#89C5CC"/>
<path fill-rule="evenodd" clip-rule="evenodd" d="M216.887 166.664L247.537 198.007C256.454 201.994 263.761 206.397 269.457 211.216C270.738 212.835 272.133 215.939 266.106 214.55C260.079 213.161 253.68 211.985 252.548 214.039C251.415 216.094 254.753 219.242 252.659 221.931C251.264 223.723 246.57 218.021 238.579 204.825L206.707 185.128L216.887 166.664ZM67.0109 138.298L90.7029 138.391C72.6583 199.674 63.0797 231.761 61.967 234.651C59.4634 241.155 64.7613 251.061 67.0269 256.384C59.6479 259.845 60.4342 247.027 51.1258 251.566C42.6295 255.71 36.1664 263.217 26.3502 256.868C25.1434 256.088 23.8209 253.149 27.0162 250.852C34.977 245.13 46.4489 235.115 47.9989 231.819C50.1127 227.324 56.45 196.15 67.0109 138.298Z" fill="#B28B67"/>
<path fill-rule="evenodd" clip-rule="evenodd" d="M139.205 67.8468L148.56 66.1647C163.299 120.776 239.023 158.002 243.672 178.417C245.377 185.904 240.236 189.689 242.892 191.969L230.731 201.301C228.672 198.782 224.277 203.389 215.1 200.167C205.922 196.944 139.205 132.512 139.205 67.8468Z" fill="#DB2721"/>
<path fill-rule="evenodd" clip-rule="evenodd" d="M154.943 75.1073C153.864 147.409 193.736 165.852 184.855 194.857C177.521 218.808 107.322 244.556 95.1747 221.078C90.2575 211.574 88.0266 200.08 87.7735 187.584C84.6688 197.185 82.2134 205.449 80.4072 212.379C77.2912 224.333 65.2113 226.233 65.2113 230.838L49.2961 226.233C50.3756 219.977 42.8728 216.93 44.8845 202.953C53.8981 140.328 78.1159 94.9329 117.538 66.768L117.955 60.519C118.12 58.0961 120.112 56.2693 122.409 56.4337L151.862 58.5926C154.161 58.7571 155.895 60.8595 155.735 63.2843C155.735 63.2857 155.735 63.287 155.731 63.288L154.943 75.1073Z" fill="#FF4133"/>
</svg>
</svg>