<svg width="1920" height="700" viewBox="0 -218 1920 482" fill="none" xmlns="http://www.w3.org/2000/svg">
<path fill-rule="evenodd" clip-rule="evenodd" d="M0 138.431L36 177.157C71 214.89 142 291.349 213 281.419C284 272.482 356 177.157 427 148.361C498 119.564 569 158.29 640 186.094C711 214.89 782 233.756 853 243.686C924 253.616 996 253.616 1067 214.89C1138 177.157 1209 100.698 1280 90.7681C1351 81.8313 1422 138.431 1493 129.494C1564 119.564 1636 43.1053 1707 15.3021C1778 -13.4942 1849 5.37231 1884 15.3021L1920 24.2388V482H1884C1849 482 1778 482 1707 482C1636 482 1564 482 1493 482C1422 482 1351 482 1280 482C1209 482 1138 482 1067 482C996 482 924 482 853 482C782 482 711 482 640 482C569 482 498 482 427 482C356 482 284 482 213 482C142 482 71 482 36 482H0V138.431Z" fill="url(#paint0_linear)"/>
<defs>
<linearGradient id="paint0_linear" x1="3280" y1="-34.754" x2="-1327.37" y2="424.409" gradientUnits="userSpaceOnUse">
<stop stop-color="#00FF57"/>
<stop offset="1" stop-color="#FAFF00" stop-opacity="0"/>
</linearGradient>
</defs>

<svg width="297" height="466" x="1473" y="-100" viewBox="0 0 297 466" fill="none" xmlns="http://www.w3.org/2000/svg">
<g filter="url(#filter0_d)">
<path fill-rule="evenodd" clip-rule="evenodd" d="M109.271 187.233C111.224 213.846 237.051 292.197 237.785 294.396C238.111 295.373 225.056 326.258 198.62 387.051L209.619 391.318C250.168 326.933 269.401 291.311 267.318 284.451C264.336 274.628 231.794 242.317 169.69 187.517L109.271 187.233Z" fill="#B28B67"/>
<path fill-rule="evenodd" clip-rule="evenodd" d="M201.514 373.322L219.472 379.848C257.339 337.195 272.182 302.002 269.476 284.071C267.671 272.117 235.241 239.86 172.185 187.299L107.983 187.299C110.174 248.93 226.8 294.63 228.359 297.256C229.919 299.883 214.568 325.605 201.514 373.322Z" fill="#2F3676"/>
<path fill-rule="evenodd" clip-rule="evenodd" d="M194.537 385.01C192.293 387.639 190.897 389.708 190.348 391.219C189.681 393.058 189.014 395.851 188.345 399.601C190.475 400.378 209.616 407.364 245.768 420.56C249.052 416.165 249.159 413.185 246.087 411.617C243.015 410.05 240.473 408.72 238.462 407.626L216.096 385.973C215.665 385.556 214.98 385.568 214.564 385.998C214.557 386.006 214.55 386.013 214.543 386.021L211.315 389.561C207.835 389.865 205.164 389.677 203.303 388.998C201.791 388.446 199.925 387.073 197.705 384.878L197.705 384.878C196.853 384.036 195.481 384.044 194.641 384.896C194.605 384.933 194.57 384.971 194.537 385.01Z" fill="#E4E4E4"/>
<path fill-rule="evenodd" clip-rule="evenodd" d="M123.739 187.233L67.6861 321.571L12.5952 435.143H25.5929L167.797 187.233H123.739Z" fill="#997659"/>
<path fill-rule="evenodd" clip-rule="evenodd" d="M11.8178 430.006C10.6059 433.248 10 435.674 10 437.284C10 439.241 10.3254 442.098 10.9762 445.854C13.2423 445.854 33.6075 445.854 72.072 445.854C73.6597 440.594 72.7432 437.754 69.3226 437.334C65.9019 436.915 63.0603 436.536 60.7978 436.198L32.4011 423.511C31.8547 423.267 31.2142 423.513 30.9706 424.061C30.9665 424.07 30.9624 424.08 30.9585 424.089L29.1332 428.527C25.9666 430.007 23.3934 430.748 21.4136 430.748C19.805 430.748 17.5836 430.096 14.7494 428.794L14.7494 428.794C13.6617 428.295 12.3758 428.773 11.8772 429.863C11.8557 429.91 11.8359 429.958 11.8178 430.006Z" fill="#E4E4E4"/>
<path fill-rule="evenodd" clip-rule="evenodd" d="M17.5703 411.55L46.4514 416.957C68.7821 384.182 162.237 249.794 172.484 187.233H108.188C73.9698 232.458 38.8561 378.233 17.5703 411.55Z" fill="#5C63AB"/>
<path fill-rule="evenodd" clip-rule="evenodd" d="M143.783 56.5049C140.34 49.6473 138.78 41.9083 141.254 34.2929C148.385 12.3509 178.492 25.1016 181.785 37.8998C185.077 50.6981 177.247 79.1139 168.87 79.1586C165.529 79.1765 159.327 75.5343 153.529 69.7568L150.345 100.84L125.105 94.5265L143.783 56.5049Z" fill="#B28B67"/>
<path fill-rule="evenodd" clip-rule="evenodd" d="M182.905 43.4985C183.019 41.9747 182.813 40.1995 182.665 38.6939C182.474 36.753 181.913 34.9061 181.233 33.1277C179.952 29.7793 178.204 26.6084 176.099 23.8133C172.253 18.7077 166.679 14.9263 160.464 14.1534C157.326 13.7631 154.081 14.1797 151.086 15.4727C148.379 16.641 145.555 18.65 142.565 18.0994C139.311 17.5001 137.075 13.9598 134.938 11.5849C132.528 8.90745 129.802 6.71438 126.554 5.3164C121.113 2.97475 115.31 3.54927 110.249 7.19596C104.863 11.0766 100.041 17.5346 101.148 24.7318C101.354 26.0697 101.752 27.2537 102.479 28.3338C103.145 29.3243 104.253 30.4774 104.292 31.8044C104.334 33.2148 102.803 34.6396 102.078 35.722C101.039 37.2729 100.088 38.9358 99.8057 40.8327C99.342 43.948 100.543 47.3317 102.077 49.8377C103.638 52.3879 105.893 54.1893 108.478 55.405C110.204 56.2168 112.01 56.8775 113.889 57.2028C114.822 57.3643 115.693 57.3131 116.631 57.3334C117.543 57.3532 117.968 57.7011 118.583 58.3537C121.44 61.3857 124.887 63.1426 128.896 63.7971C132.28 64.3494 136.299 64.5043 139.566 62.923C143.194 61.1667 143.995 57.6974 144.209 53.8305C144.865 54.3857 146.88 55.1303 146.008 53.3529C145.663 52.6489 144.796 52.1813 144.252 51.6822C143.619 51.1012 143.003 50.4009 142.596 49.6092C140.953 46.4127 144.605 41.6513 147.711 41.4912C152.326 41.2533 151.785 47.5167 154.458 49.8384C155.995 51.1733 158.142 50.4079 159.773 49.4864C161.958 48.2518 163.715 46.333 165.318 44.334C166.638 42.6878 167.905 41.0007 169.239 39.3679C169.862 38.6054 171.883 36.5144 171.418 35.3607C174.642 35.5183 177.747 37.6393 179.979 39.9616C180.901 40.9216 181.546 41.8873 181.827 43.2462C181.887 43.5373 181.966 44.378 182.3 44.4949C182.921 44.7125 182.876 43.8814 182.905 43.4985Z" fill="#191847"/>
<path fill-rule="evenodd" clip-rule="evenodd" d="M212.588 177.842L246.697 203.745C256.023 206.43 263.797 209.704 270.019 213.567C271.48 214.942 273.228 217.706 267.077 217.126C260.926 216.546 254.431 216.211 253.544 218.291C252.658 220.371 256.342 222.941 254.575 225.737C253.397 227.602 248.068 222.782 238.59 211.279L204.624 196.533L212.588 177.842ZM79.9251 176.39L102.557 176.876C87.8 221.616 79.8407 245.352 78.679 248.085C76.0652 254.234 81.2046 263.759 83.3845 268.868C75.9406 272.034 76.9398 259.842 67.5466 264.002C58.973 267.798 52.3789 274.834 42.6576 268.616C41.4625 267.851 40.1872 265.029 43.4239 262.898C51.4876 257.589 63.1372 248.255 64.7434 245.143C66.9337 240.9 71.9943 217.982 79.9251 176.39Z" fill="#B28B67"/>
<path fill-rule="evenodd" clip-rule="evenodd" d="M145.893 82.8047L155.287 81.367C189.516 111.91 202.789 169.667 244.854 200.877L234.382 213.369C160.647 202.95 143.551 132.485 145.893 82.8047Z" fill="#E87613"/>
<path fill-rule="evenodd" clip-rule="evenodd" d="M103.027 199.457C140.581 200.115 168.205 200.599 185.898 200.909C189.685 200.976 189.066 195.511 188.567 192.75C182.801 160.885 158.734 126.224 159.52 81.0233L135.681 76.8666C115.358 108.228 107.842 147.148 103.027 199.457Z" fill="#DDE3E9"/>
<path fill-rule="evenodd" clip-rule="evenodd" d="M105.292 107.513C101.838 106.457 99.1289 104.088 97.1655 100.405C88.7018 84.5319 92.0075 75.9321 101.394 73.2507C110.781 70.5694 119.005 76.5756 133.882 76.8364C134.691 76.8505 135.431 76.9141 136.103 77.0271L143.578 77.5841C163.787 150.519 168.867 199.032 158.818 223.124L93.5917 221.981C89.571 230.899 85.7415 238.395 82.1032 244.468L64.3302 244.156C63.5948 190.197 77.2489 144.649 105.292 107.513Z" fill="#FF9B21"/>
<path fill-rule="evenodd" clip-rule="evenodd" d="M108.442 184.967C110.196 202.118 113.314 214.598 117.796 222.406L93.5906 221.982C98.2807 211.579 103.231 199.241 108.442 184.967Z" fill="black" fill-opacity="0.1"/>
</g>
<defs>
<filter id="filter0_d" x="0" y="0" width="281.42" height="465.854" filterUnits="userSpaceOnUse" color-interpolation-filters="sRGB">
<feFlood flood-opacity="0" result="BackgroundImageFix"/>
<feColorMatrix in="SourceAlpha" type="matrix" values="0 0 0 0 0 0 0 0 0 0 0 0 0 0 0 0 0 0 127 0" result="hardAlpha"/>
<feOffset dy="10"/>
<feGaussianBlur stdDeviation="5"/>
<feComposite in2="hardAlpha" operator="out"/>
<feColorMatrix type="matrix" values="0 0 0 0 0 0 0 0 0 0 0 0 0 0 0 0 0 0 0.25 0"/>
<feBlend mode="normal" in2="BackgroundImageFix" result="effect1_dropShadow"/>
<feBlend mode="normal" in="SourceGraphic" in2="effect1_dropShadow" result="shape"/>
</filter>
</defs>
</svg>
</svg>
